<svg width="339" height="339" viewBox="0 0 339 339" fill="none" xmlns="http://www.w3.org/2000/svg">
<mask id="mask0_25_24" style="mask-type:alpha" maskUnits="userSpaceOnUse" x="0" y="0" width="339" height="339">
<circle cx="169.5" cy="169.5" r="169.5" fill="#F1DBC4"/>
</mask>
<g mask="url(#mask0_25_24)">
<rect y="-25" width="339" height="364" fill="#F1DBC4"/>
<mask id="mask1_25_24" style="mask-type:alpha" maskUnits="userSpaceOnUse" x="0" y="127" width="209" height="182">
<path d="M112 178.006C105.2 195.206 50.5 220.173 24 230.506L0 263.006C18 277.173 56.4 303.406 66 295.006C78 284.506 142 319.006 172.5 305.506C203 292.006 206.5 192.006 208.5 178.006C210.5 164.006 169 127.506 162.5 127.006C156 126.506 120.5 156.506 112 178.006Z" fill="black"/>
</mask>
<g mask="url(#mask1_25_24)">
<path d="M112 178.006C105.2 195.206 50.5 220.173 24 230.506L0 263.006C18 277.173 56.4 303.406 66 295.006C78 284.506 142 319.006 172.5 305.506C203 292.006 206.5 192.006 208.5 178.006C210.5 164.006 169 127.506 162.5 127.006C156 126.506 120.5 156.506 112 178.006Z" fill="black"/>
<path d="M72.5 278.5C65 277 42 298.5 42 301L171.5 346.5L216 287.5C217.5 248.667 218.8 169.9 212 165.5C203.5 160 189.5 191.5 187 195C184.5 198.5 181 240.5 180.5 251.5C180 262.5 167.5 278.5 161.5 287.5C155.5 296.5 129.5 291 126 291C122.5 291 80 280 72.5 278.5Z" fill="#474747"/>
</g>
<mask id="mask2_25_24" style="mask-type:alpha" maskUnits="userSpaceOnUse" x="-32" y="0" width="293" height="184">
<path d="M56.0446 164.266C43.6446 177.866 -2.12206 182.6 -23.4554 183.266C-25.1221 149.1 -29.1554 74.0664 -31.9554 47.2664C-35.4554 13.7664 168.045 -5.23359 222.045 1.26641C265.245 6.46641 263.378 56.4331 257.045 80.7664C252.545 85.0997 242.645 95.7664 239.045 103.766C234.545 113.766 147.545 95.2664 140.545 88.2664C133.545 81.2664 71.5446 147.266 56.0446 164.266Z" fill="#ECB565"/>
</mask>
<g mask="url(#mask2_25_24)">
<path d="M56.0446 164.266C43.6446 177.866 -2.12206 182.6 -23.4554 183.266C-25.1221 149.1 -29.1554 74.0664 -31.9554 47.2664C-35.4554 13.7664 168.045 -5.23359 222.045 1.26641C265.245 6.46641 263.378 56.4331 257.045 80.7664C252.545 85.0997 242.645 95.7664 239.045 103.766C234.545 113.766 147.545 95.2664 140.545 88.2664C133.545 81.2664 71.5446 147.266 56.0446 164.266Z" fill="#ECB565"/>
<path d="M35.0002 142C19.4002 146.8 17.5002 180.667 18.5002 197C98.8335 164.5 259.5 97.9 259.5 91.5C259.5 83.5 209 93.5 200 91.5C191 89.5 161 75.5 152 66.5C144.8 59.3 119 73.1667 107 81C89.5001 99.3333 50.6002 137.2 35.0002 142Z" fill="#F0C689"/>
</g>
<mask id="mask3_25_24" style="mask-type:alpha" maskUnits="userSpaceOnUse" x="112" y="3" width="392" height="452">
<path d="M265.009 198.511C254.063 178.798 315.096 60.1425 346.98 3.2791L503.802 6.11999C484.748 22.2647 441.138 57.5588 419.138 69.5774C391.638 84.6007 374.183 181.883 376.655 198.12C379.128 214.357 300.87 303.565 265.984 318.99C238.075 331.331 184.668 409.868 161.453 447.593L112.931 454.983C132.661 416.103 179.916 334.122 211.105 317.236C250.09 296.13 278.692 223.153 265.009 198.511Z" fill="#ECCFB1"/>
</mask>
<g mask="url(#mask3_25_24)">
<path d="M265.009 198.511C254.063 178.798 315.096 60.1425 346.98 3.2791L503.802 6.11999C484.748 22.2647 441.138 57.5588 419.138 69.5774C391.638 84.6007 374.183 181.883 376.655 198.12C379.128 214.357 300.87 303.565 265.984 318.99C238.075 331.331 184.668 409.868 161.453 447.593L112.931 454.983C132.661 416.103 179.916 334.122 211.105 317.236C250.09 296.13 278.692 223.153 265.009 198.511Z" fill="#ECCFB1"/>
</g>
</g>
</svg>
